# xmcd
#
# Track frame offsets:
#	150
#	38653
#	72208
#	94884
#	132782
#	159654
#
# Disc length: 2369 seconds
#
# Revision: 0
# Processed by: cddbd v1.5.2PL0 Copyright (c) Steve Scherf et al.
# Submitted via: EasyCDDAExtractor 9.0.0.1
#
DISCID=48093f06
DTITLE=Black Sabbath - Pavillion Paris 05-04-77 Master Disc 2
DYEAR=1977
DGENRE=Hard Rock
TTITLE0=Guitar Solo (Fades In)
TTITLE1=Electric Funeral - Jam
TTITLE2=NIB
TTITLE3=Iron Man
TTITLE4=Children Of The Grave 
TTITLE5=Paranoid
EXTD=
EXTT0=
EXTT1=
EXTT2=
EXTT3=
EXTT4=
EXTT5=
PLAYORDER=
